# xmcd
#
# Track frame offsets:
#	150
#	14330
#	26850
#	44700
#	58487
#	78615
#	98550
#	114622
#	130925
#	145665
#
# Disc length: 2189 seconds
#
# Revision: 0
# Processed by: cddbd v1.4PL0 Copyright (c) Steve Scherf et al.
# Submitted via: dBpowerAMP V4.0
#
DISCID=8f088b0a
DTITLE=Gordon Jensen - Christmas
DYEAR=1992
DGENRE=
TTITLE0=It's Gotta Be Christmas Again
TTITLE1=It Came Upon the Midnight Clear
TTITLE2=O Holy Night
TTITLE3=Carol of the Bells
TTITLE4=O Come All Ye Faithful - Joyful, Joyful We Adore Thee
TTITLE5=Do You Hear What I Hear
TTITLE6=Christmas Each Day of the Year
TTITLE7=What Child is This?
TTITLE8=The Christmas Song (Chestnust Roasting on an Open Fire)
TTITLE9=Sing-A-Long Medley (Silent Night - Hark! the Herald Angels Sing - Joy to the World)
EXTD=
EXTT0=
EXTT1=
EXTT2=
EXTT3=
EXTT4=
EXTT5=
EXTT6=
EXTT7=
EXTT8=
EXTT9=
PLAYORDER=
